<svg id="Layer_1" data-name="Layer 1" xmlns="http://www.w3.org/2000/svg" viewBox="0 0 159.48 28"><defs><style>.cls-1{font-size:34.47px;font-family:SFProDisplay-Regular, SF Pro Display;}</style></defs><title>Artboard 1</title><rect x="110.03" y="5.91" width="41.45" height="16.68" rx="5.16"/><path d="M147.29,26H114.48a8.3,8.3,0,0,1-8.29-8.29V10.45a8.3,8.3,0,0,1,8.29-8.29h32.81a8.3,8.3,0,0,1,8.29,8.29v7.23A8.3,8.3,0,0,1,147.29,26ZM114.48,3.16a7.3,7.3,0,0,0-7.29,7.29v7.23A7.3,7.3,0,0,0,114.48,25h32.81a7.3,7.3,0,0,0,7.29-7.29V10.45a7.3,7.3,0,0,0-7.29-7.29Z"/><path d="M157.28,8.29V19.13a7.29,7.29,0,0,0,2.2-4.74C159.48,11.68,159.17,11,157.28,8.29Z"/><text class="cls-1" transform="translate(54.39 25.38)">4G</text><rect x="33" y="0.49" width="7.7" height="27.16"/><rect x="22" y="7" width="7.7" height="20.64"/><rect x="11" y="12.44" width="7.7" height="15.21"/><rect y="17.87" width="7.7" height="9.78"/></svg>